# xmcd
#
# Track frame offsets:
#	150
#	13200
#	24275
#	39787
#	49550
#	65025
#	75250
#	85500
#	100275
#	112862
#	124487
#	135100
#	148925
#	165025
#	175537
#	186122
#
# Disc length: 2624
#
# Revision: 1
# Processed by: cddbd v1.5.1PL0 Copyright (c) Steve Scherf et al.
# Submitted via: dBpowerAMP V4.0
# Normalized: r0:TDELIM( - )
#
DISCID=b50a3e10
DTITLE=Various Artist - The best of The West - Coutry and Western Top Hits Vol.3
DYEAR=1989
DGENRE=Country
TTITLE0=Faron Young - It's Four In The Morning
TTITLE1=Billy Walker - When A Man Loves A Women
TTITLE2=Red Simpson - I'm A Truck
TTITLE3=Skeeter Davis - I Can't believe It's Over
TTITLE4=Melba Montgomery - No Charge
TTITLE5=Bob Lumann - When You Say Love
TTITLE6=Jimmy C. Newmann - A Fallen Star
TTITLE7=Jody Miller - Baby I'm Your's
TTITLE8=Jack and Misty - Tennessee Birdwalk
TTITLE9=Sammi Smith - Help Me Make It Through The Night
TTITLE10=Tommy Cash - Rise And Shine
TTITLE11=Nat Stuckey - Take Time To Love Her
TTITLE12=Guy Drake - Welfare Cadillac
TTITLE13=Hank Locklin - Let Me Be The One
TTITLE14=Hank Thompson - Wake Up Irene
TTITLE15=Faron Young - I Miss You Already
EXTD=
EXTT0=
EXTT1=
EXTT2=
EXTT3=
EXTT4=
EXTT5=
EXTT6=
EXTT7=
EXTT8=
EXTT9=
EXTT10=
EXTT11=
EXTT12=
EXTT13=
EXTT14=
EXTT15=
PLAYORDER=
